<?xml version="1.0" encoding="UTF-8" standalone="no"?>
<!-- Created with Inkscape (http://www.inkscape.org/) -->

<svg
   xmlns:dc="http://purl.org/dc/elements/1.1/"
   xmlns:cc="http://creativecommons.org/ns#"
   xmlns:rdf="http://www.w3.org/1999/02/22-rdf-syntax-ns#"
   xmlns:svg="http://www.w3.org/2000/svg"
   xmlns="http://www.w3.org/2000/svg"
   xmlns:sodipodi="http://sodipodi.sourceforge.net/DTD/sodipodi-0.dtd"
   xmlns:inkscape="http://www.inkscape.org/namespaces/inkscape"
   width="131.98506mm"
   height="143.40401mm"
   viewBox="0 0 131.98506 143.40401"
   version="1.1"
   id="svg8"
   sodipodi:docname="minimal.svg"
   inkscape:version="0.92.2 5c3e80d, 2017-08-06">
  <defs
     id="defs2" />
  <sodipodi:namedview
     id="base"
     pagecolor="#ffffff"
     bordercolor="#666666"
     borderopacity="1.0"
     inkscape:pageopacity="0.0"
     inkscape:pageshadow="2"
     inkscape:zoom="1.4"
     inkscape:cx="246.67932"
     inkscape:cy="219.09663"
     inkscape:document-units="mm"
     inkscape:current-layer="layer1"
     showgrid="false"
     inkscape:window-width="1920"
     inkscape:window-height="1173"
     inkscape:window-x="0"
     inkscape:window-y="27"
     inkscape:window-maximized="1"
     fit-margin-top="0"
     fit-margin-left="0"
     fit-margin-right="0"
     fit-margin-bottom="0" />
  <metadata
     id="metadata5">
    <rdf:RDF>
      <cc:Work
         rdf:about="">
        <dc:format>image/svg+xml</dc:format>
        <dc:type
           rdf:resource="http://purl.org/dc/dcmitype/StillImage" />
        <dc:title></dc:title>
      </cc:Work>
    </rdf:RDF>
  </metadata>
  <g
     inkscape:label="Layer 1"
     inkscape:groupmode="layer"
     id="layer1"
     transform="translate(-55.997099,-59.876448)">
    <path
       style="opacity:1;fill:#afdde9;fill-opacity:1;stroke:none;stroke-width:0.45537049;stroke-linecap:round;stroke-linejoin:round;stroke-miterlimit:4;stroke-dasharray:none;stroke-dashoffset:0;stroke-opacity:1;paint-order:stroke fill markers"
       d="M 56.12939,60.00874 V 203.18863 H 187.89034 V 60.00874 Z"
       id="rect903"
       inkscape:connector-curvature="0" />
    <path
       style="fill:#dee3db;stroke:#000000;stroke-width:0.69409901px;stroke-linecap:butt;stroke-linejoin:miter;stroke-opacity:1"
       d="m 284.89062,463.03125 c -70.11456,0 -30.8512,100.9643 -21.03515,192.11328 4.18647,38.87439 0.96949,79.25395 -4.08985,112.8125 h 450.3711 V 483.6875 c -10.81823,2.01277 -63.76514,13.18748 -60.55469,38.87109 3.57143,28.57146 -17.5014,114.64148 -96.78711,120.71289 -10.86857,0.83227 56.90509,-44.93419 28.82031,-42.20312 -52.70531,5.12526 -43.40651,2.35472 -45.68359,-16.54492 -3.46275,-28.74065 -33.36038,-52.59639 -30.10095,-67.19626 6.46433,-28.95541 52.97153,-31.87521 62.08728,-36.89359 4.90156,-2.69839 9.77539,-17.40234 9.77539,-17.40234 z"
       transform="scale(0.26458333)"
       id="path825"
       inkscape:connector-curvature="0"
       sodipodi:nodetypes="sscccsssssscs" />
    <path
       style="fill:#dee3db;stroke:#000000;stroke-width:0.99999994px;stroke-linecap:butt;stroke-linejoin:miter;stroke-opacity:1"
       d="m 212.14258,226.80469 v 165.11328 c 23.62435,4.97116 51.3413,8.07422 83.78125,8.07422 h 256.97851 c 0,0 133.83008,15.55306 133.83008,-153.09961 0,-6.56216 -2.18162,-13.29656 -6.27734,-20.08789 z"
       transform="scale(0.26458333)"
       id="path827"
       inkscape:connector-curvature="0" />
    <g
       id="g982">
      <path
         inkscape:connector-curvature="0"
         id="path851"
         d="m 148.79118,80.335627 c 0,0 3.83717,-0.488248 5.65934,0 2.9388,0.787451 5.0937,3.399408 7.90458,4.563713 1.485,0.615106 3.05039,1.248037 4.65774,1.248037 2.27696,0 4.62622,-0.629483 6.59812,-1.767962 1.27567,-0.736508 2.38823,-1.84907 3.12474,-3.124739 0.69417,-1.202337 0.89677,-2.646636 1.07799,-4.023098 0.626,-4.754912 0,-14.387828 0,-14.387828"
         style="fill:none;stroke:#bcd35f;stroke-width:2;stroke-linecap:butt;stroke-linejoin:miter;stroke-miterlimit:4;stroke-dasharray:none;stroke-opacity:1"
         sodipodi:nodetypes="cssssssc" />
      <path
         inkscape:connector-curvature="0"
         id="path853"
         d="m 158.70338,103.27758 c 0,0 5.13405,-1.90558 7.42034,-3.659919 1.99548,-1.531184 3.80446,-3.340161 5.33564,-5.335638 1.4382,-1.874303 2.63967,-3.955301 3.54376,-6.137973 0.66377,-1.602484 0.9463,-3.338592 1.34678,-5.026242 0.14643,-0.617082 0.3858,-1.863132 0.3858,-1.863132"
         style="fill:none;stroke:#bcd35f;stroke-width:2;stroke-linecap:round;stroke-linejoin:round;stroke-miterlimit:4;stroke-dasharray:none;stroke-opacity:1"
         sodipodi:nodetypes="cssssc" />
      <path
         sodipodi:nodetypes="csc"
         inkscape:connector-curvature="0"
         id="path919"
         d="m 147.87624,105.30209 c 0,0 -2.51303,-1.20171 -3.33798,-1.22131 -7.85944,-0.18677 -63.27338,0 -63.27338,0"
         style="fill:none;stroke:#bcd35f;stroke-width:2;stroke-linecap:round;stroke-linejoin:round;stroke-miterlimit:4;stroke-dasharray:none;stroke-opacity:1" />
      <path
         sodipodi:nodetypes="cssc"
         inkscape:connector-curvature="0"
         id="path921"
         d="m 133.65845,80.305858 c 0,0 -6.45768,-2.717251 -9.81619,-3.159407 -7.51306,-0.989113 -15.15579,0 -22.73368,0 H 80.603324"
         style="fill:none;stroke:#bcd35f;stroke-width:2.0000031;stroke-linecap:round;stroke-linejoin:round;stroke-miterlimit:4;stroke-dasharray:none;stroke-opacity:1" />
      <path
         sodipodi:nodetypes="cc"
         inkscape:connector-curvature="0"
         id="path938"
         d="M 78.398348,77.146451 66.015572,77.280086"
         style="fill:none;stroke:#bcd35f;stroke-width:2;stroke-linecap:round;stroke-linejoin:round;stroke-miterlimit:4;stroke-dasharray:2.00000006, 4.00000011;stroke-dashoffset:0;stroke-opacity:1" />
      <path
         sodipodi:nodetypes="cc"
         inkscape:connector-curvature="0"
         id="path940"
         d="M 78.659,104.08078 66.149209,102.81125"
         style="fill:none;stroke:#bcd35f;stroke-width:2;stroke-linecap:round;stroke-linejoin:round;stroke-miterlimit:4;stroke-dasharray:2.00000006, 4.00000011;stroke-dashoffset:0;stroke-opacity:1" />
      <path
         sodipodi:nodetypes="csc"
         inkscape:connector-curvature="0"
         id="path942"
         d="m 172.03452,138.43376 c 0,0 8.23877,-0.19186 8.50604,6.62351 0.26727,6.81537 -5.27857,31.33735 -5.27857,31.33735"
         style="fill:none;stroke:#bcd35f;stroke-width:2;stroke-linecap:round;stroke-linejoin:miter;stroke-miterlimit:4;stroke-dasharray:none;stroke-opacity:1" />
      <path
         sodipodi:nodetypes="cc"
         inkscape:connector-curvature="0"
         id="path944"
         d="m 174.527,178.80005 c -1.08488,4.79076 -2.82488,8.45844 -5.15694,11.11117"
         style="fill:none;stroke:#bcd35f;stroke-width:2;stroke-linecap:round;stroke-linejoin:miter;stroke-miterlimit:4;stroke-dasharray:2, 4;stroke-dashoffset:0;stroke-opacity:1;paint-order:stroke fill markers" />
    </g>
    <path
       style="fill:none;stroke:#37abc8;stroke-width:1.5;stroke-linecap:round;stroke-linejoin:round;stroke-miterlimit:4;stroke-dasharray:none;stroke-opacity:1"
       d="m 82.122794,127.69678 h 14.628775 17.026731 24.347 l 12.81555,-2.53906 m -29.32701,2.50896 3.56198,2.99027 -1.6721,15.43607 -4.81752,3.05693 m 6.48962,-18.493 3.41784,-2.88867"
       id="path821"
       inkscape:connector-curvature="0"
       sodipodi:nodetypes="ccccccccccc" />
    <path
       style="fill:none;stroke:#ff0000;stroke-width:2;stroke-linecap:round;stroke-linejoin:miter;stroke-miterlimit:4;stroke-dasharray:none;stroke-opacity:1"
       d="m 148.79118,80.335627 c 0,0 -5.37286,-0.193143 -14.0401,3.3e-5 -5.59417,0.124684 -11.13133,0.24992 -14.53769,4.689176 -4.16209,5.424147 -4.89316,6.108548 -5.30863,12.932901 -0.73935,12.144453 -0.35868,5.363963 -1.12646,29.739043 -0.49924,2.85049 -3.42289,5.37854 -2.8235,8.20966 0.74293,3.50915 5.88607,4.59802 7.32329,7.88443 0.71784,1.64143 0.43648,3.56777 0.40811,5.35908 -0.22512,14.21211 -0.0394,24.10875 -0.0394,24.10875"
       inkscape:connector-curvature="0"
       id="path823"
       sodipodi:nodetypes="cssscsscc" />
    <path
       style="fill:none;stroke:#6600ff;stroke-width:0.5;stroke-linecap:butt;stroke-linejoin:miter;stroke-miterlimit:4;stroke-dasharray:none;stroke-opacity:1"
       d="m 134.13424,84.410518 -5.02083,0.0945 -4.0669,4.968668 -5.8893,2.103901 -2.01492,8.552663 c 0,0 -2.22219,-2.531604 -2.23759,-2.172513 -0.0157,0.366011 -0.0316,0.72503 -0.0477,1.077211 -0.46123,10.096622 -0.53367,22.615192 -1.15242,28.868252 -0.24994,2.52624 -0.0805,4.26301 -0.0805,4.26301 l -16.872511,-4.46943 -4.343136,0.0548"
       id="path829"
       inkscape:connector-curvature="0"
       sodipodi:nodetypes="ccsssccccc" />
    <path
       style="fill:none;stroke:#0000ff;stroke-width:0.69999999;stroke-linecap:round;stroke-linejoin:miter;stroke-miterlimit:4;stroke-dasharray:2.79999993, 1.39999996;stroke-dashoffset:0;stroke-opacity:1"
       d="m 158.70338,103.27758 c 0,0 -3.30736,1.95084 -5.06384,1.67545 -2.36994,-0.37158 -4.11906,-2.54429 -5.81268,-4.2432 -1.22944,-1.233279 -3.94705,-3.532289 -5.18373,-4.758308 -3.1171,-3.090236 -3.99692,-3.184964 -5.96376,-7.108922 -0.66217,-1.321077 -2.48629,-2.955507 -2.54509,-4.432077 -0.0618,-1.551503 0.10279,-3.192936 -0.47583,-4.633832 -0.73538,-1.831271 -2.33001,-3.192696 -3.63627,-4.671892 -2.01212,-2.278504 -3.63995,-5.285057 -6.44833,-6.448327 -4.96786,-2.057755 -16.13152,0 -16.13152,0"
       id="path841"
       inkscape:connector-curvature="0"
       sodipodi:nodetypes="cssssssssc" />
    <path
       style="fill:none;stroke:#00ff00;stroke-width:0.69999999;stroke-linecap:round;stroke-linejoin:miter;stroke-miterlimit:4;stroke-dasharray:2.79999993, 1.39999996;stroke-dashoffset:0;stroke-opacity:1"
       d="m 147.87642,105.30215 c 0,0 -0.61689,-2.90254 -0.0496,-4.59232 0.99788,-2.972162 3.02589,-5.690541 3.2791,-8.815505 0.0936,-1.154742 -0.44502,-2.273922 -0.67144,-3.410107 -0.54154,-2.717448 -1.00766,-5.45161 -1.64334,-8.148591 -0.60714,-2.575902 -1.05595,-5.220552 -2.07134,-7.664498 -0.63665,-1.532369 -1.31569,-3.137805 -2.48904,-4.311152 -1.28118,-1.281178 -4.70735,-2.717787 -4.70735,-2.717787"
       id="path843"
       inkscape:connector-curvature="0"
       sodipodi:nodetypes="cssssssc" />
    <path
       style="fill:none;stroke:#ffff00;stroke-width:0.69999999;stroke-linecap:round;stroke-linejoin:miter;stroke-miterlimit:4;stroke-dasharray:2.79999993, 1.39999996;stroke-dashoffset:0;stroke-opacity:1"
       d="m 138.81176,100.68861 c 0,0 2.60488,-2.640867 3.83137,-4.737088 0.77788,-1.329485 1.33442,-2.197642 1.45905,-3.732924 0.0871,-1.072372 -0.14054,-2.487449 -0.26349,-3.556301 -0.31226,-2.714589 -0.24452,-4.7857 -0.73588,-7.861321 -0.29722,-1.860407 -2.83346,-2.840416 -3.14042,-4.699241 -0.29435,-1.782464 0.44776,-3.701578 1.40275,-5.235138 0.67085,-1.077278 1.83362,-1.768069 2.86566,-2.50662 1.40707,-1.006928 4.49531,-2.595372 4.49531,-2.595372"
       id="path845"
       inkscape:connector-curvature="0"
       sodipodi:nodetypes="csssssssc" />
    <path
       style="fill:none;stroke:#ff0000;stroke-width:2;stroke-linecap:round;stroke-linejoin:miter;stroke-miterlimit:4;stroke-dasharray:4.00000011, 4.00000011;stroke-dashoffset:0;stroke-opacity:1"
       d="m 118.6468,174.57744 c 0.95778,8.53965 5.5395,15.0704 11.76807,13.75932 7.11146,-1.49693 15.83804,1.65779 20.3711,7.38496"
       id="path849"
       inkscape:connector-curvature="0"
       sodipodi:nodetypes="csc" />
    <path
       style="fill:none;stroke:#ff0000;stroke-width:0.69999999;stroke-linecap:round;stroke-linejoin:miter;stroke-miterlimit:4;stroke-dasharray:2.79999993, 1.39999996;stroke-dashoffset:0;stroke-opacity:1"
       d="m 136.67937,88.8426 7.15932,-0.180305 c 1.67083,-0.04208 4.93957,-0.396334 6.59583,-0.178077 0,0 7.32789,1.322674 11.03604,1.454298 1.93219,0.06858 3.90862,0.0984 5.78975,-0.348153 2.19817,-0.521812 4.53978,-1.174315 6.22657,-2.677299 1.62382,-1.446874 2.7685,-3.537178 3.24882,-5.658388 0.38088,-1.682037 0.44204,-3.64945 -0.39199,-5.158993 -0.62295,-1.127515 -1.82798,-2.140325 -3.10635,-2.298879 -1.36317,-0.169072 -3.81092,1.56788 -3.81092,1.56788"
       id="path847"
       inkscape:connector-curvature="0"
       sodipodi:nodetypes="cssssssssc" />
    <path
       style="fill:none;stroke:#ffd42a;stroke-width:0.69999999;stroke-linecap:round;stroke-linejoin:miter;stroke-miterlimit:4;stroke-dasharray:none;stroke-opacity:1"
       d="m 147.87642,105.30215 4.97165,17.20802"
       id="path855"
       inkscape:connector-curvature="0"
       sodipodi:nodetypes="cc" />
    <path
       style="fill:none;stroke:#ffd42a;stroke-width:0.69999999;stroke-linecap:round;stroke-linejoin:miter;stroke-miterlimit:4;stroke-dasharray:none;stroke-opacity:1"
       d="m 153.63954,104.95303 c 0,0 4.05909,18.5723 9.61572,26.06318 2.38945,3.22121 8.77926,7.41755 8.77926,7.41755"
       id="path859"
       inkscape:connector-curvature="0"
       sodipodi:nodetypes="csc" />
    <path
       style="fill:none;stroke:#5fd35f;stroke-width:0.5;stroke-linecap:butt;stroke-linejoin:miter;stroke-miterlimit:4;stroke-dasharray:none;stroke-opacity:1"
       d="m 172.03452,138.43376 1.99152,5.76414 2.08663,0.071 0.40528,9.25615 -6.03235,10.44833 -15.92966,9.197 H 118.8013"
       id="path862"
       inkscape:connector-curvature="0"
       sodipodi:nodetypes="ccccccc" />
    <path
       style="fill:none;stroke:#5fd35f;stroke-width:0.5;stroke-linecap:butt;stroke-linejoin:miter;stroke-miterlimit:4;stroke-dasharray:none;stroke-opacity:1"
       d="m 170.4856,163.97338 -0.21851,2.8799 -1.72099,6.77287 -7.15878,5.57221 -26.54984,2.26786 -10.13987,1.91687 -5.89631,-10.21271"
       id="path864"
       inkscape:connector-curvature="0"
       sodipodi:nodetypes="ccccccc" />
    <path
       style="fill:none;stroke:#6600ff;stroke-width:0.5;stroke-linecap:butt;stroke-linejoin:miter;stroke-miterlimit:4;stroke-dasharray:none;stroke-opacity:1"
       d="m 135.1954,168.50585 h 5.921 l -6.58918,-3.80427 h -13.77948 v -10.98353 l -5.69813,-1.95218 v -4.65654 l 2.21489,-8.26607 v -5.01771 H 105.30419 94.035956 l -1.627519,-6.07398 -2.472241,6.74856 v 5.74629 l -3.526294,3.5307 -2.116667,3.68527 -3.482018,3.55605 -0.457448,7.56257 -0.672738,11.12174 -9.570659,9.16591"
       id="path866"
       inkscape:connector-curvature="0"
       sodipodi:nodetypes="cccccccccccccccccccc" />
    <path
       style="fill:none;stroke:#6600ff;stroke-width:0.5;stroke-linecap:butt;stroke-linejoin:miter;stroke-miterlimit:4;stroke-dasharray:none;stroke-opacity:1"
       d="m 80.215318,158.88848 5.339172,4.13646 9.12466,3.65467 h 4.594953"
       id="path868"
       inkscape:connector-curvature="0"
       sodipodi:nodetypes="cccc" />
    <path
       style="fill:none;stroke:#c837ab;stroke-width:0.5;stroke-linecap:butt;stroke-linejoin:miter;stroke-miterlimit:4;stroke-dasharray:none;stroke-opacity:1"
       d="m 118.6862,149.14995 h -7.93918 l -3.11954,-1.80107 h -8.030755 l -4.02852,2.32587 h -5.32639 l -3.831913,-2.21236"
       id="path889"
       inkscape:connector-curvature="0" />
    <path
       style="fill:none;stroke:#c837ab;stroke-width:0.5;stroke-linecap:butt;stroke-linejoin:miter;stroke-miterlimit:4;stroke-dasharray:none;stroke-opacity:1"
       d="m 118.82626,166.45647 -7.22879,7.2288 3.04743,3.04743 -13.70163,13.70164"
       id="path891"
       inkscape:connector-curvature="0" />
    <path
       style="fill:none;stroke:#c837ab;stroke-width:0.5;stroke-linecap:butt;stroke-linejoin:miter;stroke-miterlimit:4;stroke-dasharray:none;stroke-opacity:1"
       d="m 147.34964,163.84406 -4.84017,3.7535 -7.28849,-4.20802 h -11.08265 l -5.31207,3.06693 h 15.87501 l 2.52533,0.67666 3.8714,-2.23515 7.62153,-4.8812"
       id="path893"
       inkscape:connector-curvature="0"
       sodipodi:nodetypes="ccccccccc" />
    <path
       style="fill:none;stroke:#c837ab;stroke-width:0.5;stroke-linecap:butt;stroke-linejoin:miter;stroke-miterlimit:4;stroke-dasharray:none;stroke-opacity:1"
       d="m 118.8013,173.17038 5.89631,10.21271 -4.11073,7.12 -2.31705,-4.01325 -7.7669,4.48423 4.60742,7.98029 7.76641,-4.48394"
       id="path895"
       inkscape:connector-curvature="0" />
    <path
       style="fill:none;stroke:#c837ab;stroke-width:0.5;stroke-linecap:butt;stroke-linejoin:miter;stroke-miterlimit:4;stroke-dasharray:none;stroke-opacity:1"
       d="m 124.69761,183.38309 -6.42778,3.10675 -7.7669,4.48423 2.70381,4.68314 4.871,-2.81228 3.74452,6.48571 8.117,-4.68635 2.52907,4.38048"
       id="path897"
       inkscape:connector-curvature="0" />
    <path
       style="fill:none;stroke:#c837ab;stroke-width:0.5;stroke-linecap:butt;stroke-linejoin:miter;stroke-miterlimit:4;stroke-dasharray:none;stroke-opacity:1"
       d="m 118.46722,154.87943 h 4.34313 l 1.16866,2.02418 v 3.85574 l -2.28818,2.28818"
       id="path899"
       inkscape:connector-curvature="0" />
    <path
       style="fill:none;stroke:#c837ab;stroke-width:0.5;stroke-linecap:butt;stroke-linejoin:miter;stroke-miterlimit:4;stroke-dasharray:none;stroke-opacity:1"
       d="m 122.81035,154.87943 4.93904,-2.85156 4.42569,-1.18586 0.54258,-2.02494 h 3.38934 l 0.52916,1.97483 -1.40503,2.43358"
       id="path901"
       inkscape:connector-curvature="0" />
    <path
       style="fill:none;stroke:#ffd42a;stroke-width:0.69999999;stroke-linecap:round;stroke-linejoin:miter;stroke-miterlimit:4;stroke-dasharray:none;stroke-opacity:1"
       d="M 100.54167,105.74405 92.320683,122.375 c 0,0 -7.465028,-6.09487 -14.032364,0.0473"
       id="path917"
       inkscape:connector-curvature="0" />
    <g
       id="g936"
       transform="matrix(0.43266279,0,0,0.43266279,48.402094,74.611555)">
      <path
         inkscape:connector-curvature="0"
         id="path926-6"
         d="m 77.201912,143.59948 c -0.61867,-0.0771 -1.164211,-0.65048 -1.096119,-1.30271 -0.0032,-0.39258 -0.0014,-0.78517 -0.0019,-1.17776 -0.5501,-0.0323 -1.144051,0.0813 -1.66026,-0.0794 -0.544429,-0.1722 -0.869497,-0.77685 -0.807764,-1.33627 -1e-4,-2.97194 -0.02669,-5.94506 0.01402,-8.91633 0.06657,-0.36262 0.284796,-0.72044 0.628386,-0.88636 0.44055,-0.26996 1.01213,-0.10418 1.513748,-0.14552 0.383329,0.12209 0.323195,-0.19929 0.311876,-0.47185 0.01508,-0.55736 -0.120994,-1.22053 0.343959,-1.63158 0.318014,-0.37453 0.838644,-0.43089 1.315587,-0.3922 2.121564,0.009 4.24666,-0.0378 6.366149,0.0259 0.486739,0.16767 0.906245,0.58432 0.907883,1.12482 0.07476,0.43639 0.0195,0.89783 0.0358,1.34496 0.57248,0.0395 1.189082,-0.10542 1.726406,0.10584 0.476306,0.23608 0.760126,0.76557 0.692639,1.30198 -0.0397,0.5931 0.09535,1.22538 -0.0841,1.79364 -0.203055,0.53498 -0.788155,0.85636 -1.360123,0.76665 -0.648461,-0.0664 -1.367833,0.15332 -1.967013,-0.16472 -0.450629,-0.28756 -0.654466,-0.83639 -0.595172,-1.36112 -2.5e-4,-0.30256 -10e-5,-0.60512 -1.5e-4,-0.90768 -1.949097,0 -3.898195,0 -5.847292,0 0,2.76048 0,5.52097 0,8.28146 1.949097,0 3.898195,0 5.847292,0 0.04252,-0.70457 -0.178045,-1.53205 0.370416,-2.07698 0.327484,-0.35468 0.826967,-0.37685 1.28852,-0.34349 0.555858,0.0579 1.169686,-0.12683 1.688043,0.12521 0.457584,0.23119 0.72274,0.75997 0.659566,1.27149 -0.04214,0.59143 0.09896,1.22597 -0.0841,1.79106 -0.197189,0.55554 -0.805668,0.86795 -1.384335,0.78038 -0.316871,2.5e-4 -0.633743,1e-4 -0.950613,1.5e-4 -0.03846,0.64531 0.13076,1.35596 -0.224896,1.92484 -0.252423,0.40525 -0.73011,0.58701 -1.191323,0.56964 -2.151429,8.4e-4 -4.304652,0.0261 -6.455136,-0.014 z"
         style="display:inline;fill:#426bbd;fill-opacity:1;stroke:#000000;stroke-width:0.5;stroke-linecap:round;stroke-linejoin:round;stroke-miterlimit:4;stroke-dasharray:none;stroke-opacity:1;paint-order:stroke markers fill" />
      <path
         inkscape:connector-curvature="0"
         id="path1027"
         d="m 62.052424,143.37001 c -0.141573,-0.0963 -0.328569,-0.27112 -0.415547,-0.38843 -0.151315,-0.20408 -0.159086,-0.31517 -0.180031,-2.57352 -0.02188,-2.35877 -0.02178,-2.36039 0.15299,-2.61973 0.34113,-0.5062 0.583366,-0.60328 1.505377,-0.60328 h 0.820368 v -0.52917 -0.52916 h -0.820368 c -0.89896,0 -1.133109,-0.0877 -1.478336,-0.55361 -0.152681,-0.20606 -0.158141,-0.29657 -0.158141,-2.62139 0,-2.32483 0.0055,-2.41533 0.158141,-2.62139 0.345227,-0.46593 0.579376,-0.55361 1.478336,-0.55361 h 0.820368 l 0.0012,-0.77485 c 0.0015,-0.95144 0.145748,-1.2818 0.676544,-1.54971 0.334658,-0.16891 0.360614,-0.17009 3.755631,-0.17009 2.238022,0 3.492137,0.0279 3.631452,0.0806 0.266933,0.10114 0.53039,0.34371 0.692413,0.63753 0.09963,0.18067 0.124267,0.43428 0.121161,1.24732 -0.0046,1.19356 -0.08573,1.44034 -0.578964,1.76016 l -0.316646,0.20532 h -3.273259 -3.273261 v 1.73527 1.73527 l 2.066018,0.0223 2.066018,0.0223 0.285456,0.21785 c 0.440892,0.33647 0.527595,0.61581 0.521195,1.67916 -0.0061,1.0207 -0.08381,1.35058 -0.385822,1.63868 -0.349872,0.33377 -0.521343,0.35746 -2.586901,0.35746 H 65.38271 l -0.02431,2.07349 c -0.02293,1.95581 -0.03315,2.08533 -0.180169,2.28209 -0.361281,0.48351 -0.47091,0.51819 -1.720597,0.54426 -1.095871,0.0229 -1.159451,0.016 -1.40521,-0.15119 z"
         style="display:inline;fill:#7bbd00;fill-opacity:1;stroke:#000000;stroke-width:0.5;stroke-linecap:round;stroke-linejoin:round;stroke-miterlimit:4;stroke-dasharray:none;stroke-opacity:1;paint-order:stroke markers fill" />
      <path
         inkscape:connector-curvature="0"
         id="path1031"
         d="m 92.210506,143.36703 c -0.485003,-0.33005 -0.559216,-0.50556 -0.604121,-1.4287 l -0.04075,-0.83757 -0.944938,-0.0138 c -0.557998,-0.008 -1.010346,-0.0503 -1.104662,-0.10288 -0.339973,-0.18953 -0.369445,-0.42926 -0.369445,-3.00524 0,-2.29057 0.0081,-2.4331 0.152918,-2.68363 0.252783,-0.43736 0.685689,-0.60476 1.563992,-0.60476 h 0.739934 v -0.48301 -0.48301 l -0.812645,-0.028 c -0.971151,-0.0335 -1.271871,-0.17198 -1.529612,-0.7044 -0.154665,-0.31949 -0.159856,-0.41702 -0.137655,-2.58628 0.02249,-2.1973 0.02744,-2.2613 0.196011,-2.53239 0.103733,-0.16682 0.30711,-0.34307 0.508215,-0.44042 0.303204,-0.14678 0.4362,-0.15995 1.390422,-0.13766 1.146498,0.0268 1.272164,0.0688 1.627918,0.54497 0.147145,0.19692 0.157109,0.32456 0.178181,2.28208 l 0.02233,2.07349 1.905359,0.003 c 1.987111,0.003 2.300942,0.0449 2.636261,0.3484 0.334053,0.30231 0.389978,0.53755 0.393526,1.65526 0.0038,1.194 -0.06997,1.42756 -0.553829,1.75363 -0.246949,0.16642 -0.300453,0.17035 -2.320467,0.17035 h -2.06769 v 1.73569 1.73569 l 3.31293,0.0219 3.312927,0.0219 0.307825,0.20379 c 0.476419,0.31539 0.571329,0.65009 0.538939,1.90043 -0.0287,1.10949 -0.0743,1.2423 -0.546901,1.59528 -0.203059,0.15165 -0.30703,0.15642 -3.855331,0.17683 l -3.646643,0.021 z"
         style="display:inline;fill:#5abdce;fill-opacity:1;stroke:#000000;stroke-width:0.5;stroke-linecap:round;stroke-linejoin:round;stroke-miterlimit:4;stroke-dasharray:none;stroke-opacity:1;paint-order:stroke markers fill" />
    </g>
    <text
       xml:space="preserve"
       style="font-style:normal;font-variant:normal;font-weight:900;font-stretch:normal;font-size:5.29166651px;line-height:1.25;font-family:'Noto Sans';-inkscape-font-specification:'Noto Sans Heavy';letter-spacing:0px;word-spacing:0px;fill:#c837ab;fill-opacity:1;stroke:none;stroke-width:0.26458332"
       x="132.63251"
       y="197.90982"
       id="text948"><tspan
         sodipodi:role="line"
         id="tspan946"
         x="132.63251"
         y="197.90982"
         style="font-size:4.93888903px;fill:#c837ab;fill-opacity:1;stroke-width:0.26458332">2N</tspan></text>
    <text
       xml:space="preserve"
       style="font-style:normal;font-variant:normal;font-weight:900;font-stretch:normal;font-size:10.58333302px;line-height:1.25;font-family:'Noto Sans';-inkscape-font-specification:'Noto Sans Heavy';letter-spacing:0px;word-spacing:0px;fill:#c837ab;fill-opacity:1;stroke:none;stroke-width:0.26458332"
       x="122.74353"
       y="194.10123"
       id="text952"><tspan
         sodipodi:role="line"
         id="tspan950"
         x="122.74353"
         y="194.10123"
         style="font-size:4.93888903px;fill:#c837ab;fill-opacity:1;stroke-width:0.26458332">1N</tspan></text>
    <text
       xml:space="preserve"
       style="font-style:normal;font-variant:normal;font-weight:900;font-stretch:normal;font-size:5.29166651px;line-height:1.25;font-family:'Noto Sans';-inkscape-font-specification:'Noto Sans Heavy';letter-spacing:0px;word-spacing:0px;fill:#c837ab;fill-opacity:1;stroke:none;stroke-width:0.26458332"
       x="94.98455"
       y="193.14958"
       id="text948-3"><tspan
         sodipodi:role="line"
         id="tspan946-6"
         x="94.98455"
         y="193.14958"
         style="font-size:4.93888903px;fill:#c837ab;fill-opacity:1;stroke-width:0.26458332">3F</tspan></text>
    <path
       style="fill:none;stroke:#6600ff;stroke-width:0.5;stroke-linecap:butt;stroke-linejoin:miter;stroke-miterlimit:4;stroke-dasharray:none;stroke-opacity:1"
       d="m 92.320683,122.375 0.08775,5.37657 -10.285641,-0.0548 -3.834475,-5.27448"
       id="path972"
       inkscape:connector-curvature="0" />
    <text
       xml:space="preserve"
       style="font-style:normal;font-variant:normal;font-weight:900;font-stretch:normal;font-size:5.29166651px;line-height:1.25;font-family:'Noto Sans';-inkscape-font-specification:'Noto Sans Heavy';letter-spacing:0px;word-spacing:0px;fill:#c837ab;fill-opacity:1;stroke:none;stroke-width:0.26458332"
       x="147.0163"
       y="164.41338"
       id="text948-3-7"><tspan
         sodipodi:role="line"
         id="tspan946-6-5"
         x="147.0163"
         y="164.41338"
         style="font-size:4.93888903px;fill:#c837ab;fill-opacity:1;stroke-width:0.26458332">1F</tspan></text>
    <text
       xml:space="preserve"
       style="font-style:normal;font-variant:normal;font-weight:900;font-stretch:normal;font-size:5.29166651px;line-height:1.25;font-family:'Noto Sans';-inkscape-font-specification:'Noto Sans Heavy';letter-spacing:0px;word-spacing:0px;fill:#c837ab;fill-opacity:1;stroke:none;stroke-width:0.26458332"
       x="146.37334"
       y="158.75322"
       id="text948-3-3"><tspan
         sodipodi:role="line"
         id="tspan946-6-56"
         x="146.37334"
         y="158.75322"
         style="font-size:4.93888903px;fill:#c837ab;fill-opacity:1;stroke-width:0.26458332">2F</tspan></text>
    <text
       xml:space="preserve"
       style="font-style:normal;font-variant:normal;font-weight:900;font-stretch:normal;font-size:5.29166651px;line-height:1.25;font-family:'Noto Sans';-inkscape-font-specification:'Noto Sans Heavy';letter-spacing:0px;word-spacing:0px;fill:#c837ab;fill-opacity:1;stroke:none;stroke-width:0.26458332"
       x="128.84976"
       y="156.17166"
       id="text948-3-7-2"><tspan
         sodipodi:role="line"
         id="tspan946-6-5-9"
         x="128.84976"
         y="156.17166"
         style="font-size:4.93888903px;fill:#c837ab;fill-opacity:1;stroke-width:0.26458332">1A</tspan></text>
    <text
       xml:space="preserve"
       style="font-style:normal;font-variant:normal;font-weight:900;font-stretch:normal;font-size:5.29166651px;line-height:1.25;font-family:'Noto Sans';-inkscape-font-specification:'Noto Sans Heavy';letter-spacing:0px;word-spacing:0px;fill:#c837ab;fill-opacity:1;stroke:none;stroke-width:0.26458332"
       x="124.31405"
       y="161.93581"
       id="text948-3-7-2-1"><tspan
         sodipodi:role="line"
         id="tspan946-6-5-9-2"
         x="124.31405"
         y="161.93581"
         style="font-size:4.93888903px;fill:#c837ab;fill-opacity:1;stroke-width:0.26458332">2A</tspan></text>
    <text
       xml:space="preserve"
       style="font-style:normal;font-variant:normal;font-weight:900;font-stretch:normal;font-size:5.29166651px;line-height:1.25;font-family:'Noto Sans';-inkscape-font-specification:'Noto Sans Heavy';letter-spacing:0px;word-spacing:0px;fill:#6600ff;fill-opacity:1;stroke:none;stroke-width:0.26458332"
       x="99.46212"
       y="167.79443"
       id="text948-3-7-2-7"><tspan
         sodipodi:role="line"
         id="tspan946-6-5-9-0"
         x="99.46212"
         y="167.79443"
         style="font-size:4.93888903px;fill:#6600ff;fill-opacity:1;stroke-width:0.26458332">126</tspan></text>
    <text
       xml:space="preserve"
       style="font-style:normal;font-variant:normal;font-weight:900;font-stretch:normal;font-size:5.29166651px;line-height:1.25;font-family:'Noto Sans';-inkscape-font-specification:'Noto Sans Heavy';letter-spacing:0px;word-spacing:0px;fill:#6600ff;fill-opacity:1;stroke:none;stroke-width:0.26458332"
       x="70.546936"
       y="182.25201"
       id="text948-3-7-2-9"><tspan
         sodipodi:role="line"
         id="tspan946-6-5-9-3"
         x="70.546936"
         y="182.25201"
         style="font-size:4.93888903px;fill:#6600ff;fill-opacity:1;stroke-width:0.26458332">127</tspan></text>
    <text
       xml:space="preserve"
       style="font-style:normal;font-variant:normal;font-weight:900;font-stretch:normal;font-size:5.29166651px;line-height:1.25;font-family:'Noto Sans';-inkscape-font-specification:'Noto Sans Heavy';letter-spacing:0px;word-spacing:0px;fill:#6600ff;fill-opacity:1;stroke:none;stroke-width:0.26458332"
       x="69.696495"
       y="122.2483"
       id="text948-3-7-2-9-6"><tspan
         sodipodi:role="line"
         x="69.696495"
         y="122.2483"
         style="font-size:4.93888903px;fill:#6600ff;fill-opacity:1;stroke-width:0.26458332"
         id="tspan1119">125</tspan></text>
    <text
       xml:space="preserve"
       style="font-style:normal;font-variant:normal;font-weight:900;font-stretch:normal;font-size:5.29166651px;line-height:1.25;font-family:'Noto Sans';-inkscape-font-specification:'Noto Sans Heavy';letter-spacing:0px;word-spacing:0px;fill:#6600ff;fill-opacity:1;stroke:none;stroke-width:0.26458332"
       x="92.469559"
       y="126.21705"
       id="text948-3-7-2-9-62"><tspan
         sodipodi:role="line"
         id="tspan946-6-5-9-3-6"
         x="92.469559"
         y="126.21705"
         style="font-size:4.93888903px;fill:#6600ff;fill-opacity:1;stroke-width:0.26458332">146</tspan></text>
    <text
       xml:space="preserve"
       style="font-style:normal;font-variant:normal;font-weight:900;font-stretch:normal;font-size:5.29166651px;line-height:1.25;font-family:'Noto Sans';-inkscape-font-specification:'Noto Sans Heavy';letter-spacing:0px;word-spacing:0px;fill:#c837ab;fill-opacity:1;stroke:none;stroke-width:0.26458332"
       x="86.621216"
       y="147.62225"
       id="text948-3-7-2-9-1"><tspan
         sodipodi:role="line"
         id="tspan946-6-5-9-3-8"
         x="86.621216"
         y="147.62225"
         style="font-size:4.93888903px;fill:#c837ab;fill-opacity:1;stroke-width:0.26458332">1C</tspan></text>
    <text
       xml:space="preserve"
       style="font-style:normal;font-variant:normal;font-weight:900;font-stretch:normal;font-size:5.29166651px;line-height:1.25;font-family:'Noto Sans';-inkscape-font-specification:'Noto Sans Heavy';letter-spacing:0px;word-spacing:0px;fill:#6600ff;fill-opacity:1;stroke:none;stroke-width:0.26458332"
       x="126.70211"
       y="90.366631"
       id="text948-3-7-2-9-62-7"><tspan
         sodipodi:role="line"
         id="tspan946-6-5-9-3-6-9"
         x="126.70211"
         y="90.366631"
         style="font-size:4.93888903px;fill:#6600ff;fill-opacity:1;stroke-width:0.26458332">158</tspan></text>
    <text
       xml:space="preserve"
       style="font-style:normal;font-variant:normal;font-weight:900;font-stretch:normal;font-size:5.29166651px;line-height:1.25;font-family:'Noto Sans';-inkscape-font-specification:'Noto Sans Heavy';letter-spacing:0px;word-spacing:0px;fill:#6600ff;fill-opacity:1;stroke:none;stroke-width:0.26458332"
       x="69.849205"
       y="126.68952"
       id="text948-3-7-2-9-6-2"><tspan
         sodipodi:role="line"
         x="69.849205"
         y="126.68952"
         style="font-size:4.93888903px;fill:#6600ff;fill-opacity:1;stroke-width:0.26458332"
         id="tspan1119-0">158</tspan></text>
    <path
       style="fill:none;stroke:#6600ff;stroke-width:0.5;stroke-linecap:butt;stroke-linejoin:miter;stroke-miterlimit:4;stroke-dasharray:none;stroke-opacity:1"
       d="m 89.936195,140.24642 h -22.08947 v 4.71266"
       id="path1141"
       inkscape:connector-curvature="0" />
    <text
       xml:space="preserve"
       style="font-style:normal;font-variant:normal;font-weight:900;font-stretch:normal;font-size:5.29166651px;line-height:1.25;font-family:'Noto Sans';-inkscape-font-specification:'Noto Sans Heavy';letter-spacing:0px;word-spacing:0px;fill:#6600ff;fill-opacity:1;stroke:none;stroke-width:0.26458332"
       x="66.221382"
       y="149.3681"
       id="text948-3-7-2-9-62-2"><tspan
         sodipodi:role="line"
         id="tspan946-6-5-9-3-6-3"
         x="66.221382"
         y="149.3681"
         style="font-size:4.93888903px;fill:#6600ff;fill-opacity:1;stroke-width:0.26458332">124</tspan></text>
    <text
       xml:space="preserve"
       style="font-style:normal;font-variant:normal;font-weight:900;font-stretch:normal;font-size:5.29166651px;line-height:1.25;font-family:'Noto Sans';-inkscape-font-specification:'Noto Sans Heavy';letter-spacing:0px;word-spacing:0px;fill:#6600ff;fill-opacity:1;stroke:none;stroke-width:0.26458332"
       x="66.22139"
       y="153.24236"
       id="text948-3-7-2-9-62-75"><tspan
         sodipodi:role="line"
         id="tspan946-6-5-9-3-6-92"
         x="66.22139"
         y="153.24236"
         style="font-size:4.93888903px;fill:#6600ff;fill-opacity:1;stroke-width:0.26458332">194</tspan></text>
    <text
       xml:space="preserve"
       style="font-style:normal;font-variant:normal;font-weight:900;font-stretch:normal;font-size:5.29166651px;line-height:1.25;font-family:'Noto Sans';-inkscape-font-specification:'Noto Sans Heavy';letter-spacing:0px;word-spacing:0px;fill:#6600ff;fill-opacity:1;stroke:none;stroke-width:0.26458332"
       x="70.541557"
       y="186.36765"
       id="text948-3-7-2-9-2"><tspan
         sodipodi:role="line"
         id="tspan946-6-5-9-3-89"
         x="70.541557"
         y="186.36765"
         style="font-size:4.93888903px;fill:#6600ff;fill-opacity:1;stroke-width:0.26458332">145</tspan></text>
    <text
       xml:space="preserve"
       style="font-style:normal;font-variant:normal;font-weight:900;font-stretch:normal;font-size:5.29166651px;line-height:1.25;font-family:'Noto Sans';-inkscape-font-specification:'Noto Sans Heavy';letter-spacing:0px;word-spacing:0px;fill:#6600ff;fill-opacity:1;stroke:none;stroke-width:0.26458332"
       x="126.40088"
       y="170.56532"
       id="text948-3-7-2-9-7"><tspan
         sodipodi:role="line"
         id="tspan946-6-5-9-3-3"
         x="126.40088"
         y="170.56532"
         style="font-size:4.93888903px;fill:#6600ff;fill-opacity:1;stroke-width:0.26458332">198</tspan></text>
    <text
       xml:space="preserve"
       style="font-style:normal;font-variant:normal;font-weight:900;font-stretch:normal;font-size:5.29166651px;line-height:1.25;font-family:'Noto Sans';-inkscape-font-specification:'Noto Sans Heavy';letter-spacing:0px;word-spacing:0px;fill:#5fd35f;fill-opacity:1;stroke:none;stroke-width:0.26458332"
       x="152.29297"
       y="172.74153"
       id="text948-3-7-6"><tspan
         sodipodi:role="line"
         id="tspan946-6-5-1"
         x="152.29297"
         y="172.74153"
         style="font-size:4.93888903px;fill:#5fd35f;fill-opacity:1;stroke-width:0.26458332">6</tspan></text>
    <text
       xml:space="preserve"
       style="font-style:normal;font-variant:normal;font-weight:900;font-stretch:normal;font-size:5.29166651px;line-height:1.25;font-family:'Noto Sans';-inkscape-font-specification:'Noto Sans Heavy';letter-spacing:0px;word-spacing:0px;fill:#5fd35f;fill-opacity:1;stroke:none;stroke-width:0.26458332"
       x="156.22832"
       y="178.69464"
       id="text948-3-7-29"><tspan
         sodipodi:role="line"
         id="tspan946-6-5-3"
         x="156.22832"
         y="178.69464"
         style="font-size:4.93888903px;fill:#5fd35f;fill-opacity:1;stroke-width:0.26458332">16</tspan></text>
  </g>
</svg>
